<svg width="95" height="95" viewBox="0 0 95 95" fill="none" xmlns="http://www.w3.org/2000/svg">
<path d="M70.6448 24.6163C70.6738 24.6163 70.7037 24.6163 70.7336 24.6163C70.784 24.616 70.8342 24.6123 70.8841 24.605C71.5221 24.6181 72.1296 24.8831 72.5766 25.3432C73.0235 25.8034 73.2742 26.4221 73.2751 27.0668C73.2751 27.3594 73.3902 27.6401 73.595 27.847C73.7998 28.0539 74.0776 28.1702 74.3673 28.1702C74.657 28.1702 74.9348 28.0539 75.1396 27.847C75.3445 27.6401 75.4595 27.3594 75.4595 27.0668C75.4572 26.0027 75.0959 24.9713 74.4352 24.1426C73.7745 23.3139 72.8539 22.7376 71.8253 22.5086V21.4491C71.8253 21.1565 71.7103 20.8758 71.5054 20.6689C71.3006 20.462 71.0228 20.3457 70.7331 20.3457C70.4435 20.3457 70.1656 20.462 69.9608 20.6689C69.756 20.8758 69.6409 21.1565 69.6409 21.4491V22.5587C68.5564 22.8508 67.6142 23.5316 66.99 24.4739C66.3657 25.4162 66.1022 26.5558 66.2484 27.68C66.3946 28.8042 66.9407 29.8363 67.7847 30.5837C68.6288 31.3311 69.7131 31.7428 70.8355 31.742C71.318 31.742 71.7897 31.8866 72.1909 32.1574C72.592 32.4282 72.9047 32.8131 73.0894 33.2635C73.274 33.7138 73.3223 34.2094 73.2282 34.6875C73.1341 35.1655 72.9017 35.6047 72.5605 35.9494C72.2194 36.2941 71.7847 36.5288 71.3114 36.6239C70.8382 36.719 70.3477 36.6702 69.9019 36.4836C69.4561 36.2971 69.0751 35.9812 68.807 35.5759C68.539 35.1706 68.3959 34.6941 68.3959 34.2066C68.3959 33.914 68.2808 33.6333 68.076 33.4264C67.8711 33.2195 67.5933 33.1032 67.3037 33.1032C67.014 33.1032 66.7362 33.2195 66.5313 33.4264C66.3265 33.6333 66.2114 33.914 66.2114 34.2066C66.2129 35.2349 66.5496 36.234 67.1695 37.0496C67.7894 37.8651 68.658 38.4516 69.6409 38.7185V39.9272C69.6409 40.2199 69.756 40.5005 69.9608 40.7074C70.1656 40.9144 70.4435 41.0306 70.7331 41.0306C71.0228 41.0306 71.3006 40.9144 71.5054 40.7074C71.7103 40.5005 71.8253 40.2199 71.8253 39.9272V38.7704C72.9424 38.5273 73.9308 37.8747 74.5997 36.9388C75.2687 36.0028 75.5708 34.8497 75.4478 33.702C75.3248 32.5542 74.7854 31.4932 73.9336 30.7235C73.0819 29.9539 71.9782 29.5302 70.8355 29.5342C70.2056 29.5332 69.6005 29.286 69.1469 28.8444C68.6934 28.4028 68.4266 27.801 68.4024 27.1651C68.3783 26.5291 68.5986 25.9085 69.0173 25.433C69.436 24.9575 70.0206 24.6642 70.6485 24.6144L70.6448 24.6163Z" fill="#BD4040"/>
<path d="M70.9008 14.9512C67.7132 14.9726 64.6079 15.9757 61.9994 17.8266C59.3908 19.6775 57.4031 22.2882 56.3016 25.3102H29.1949C28.901 25.3233 28.6234 25.4506 28.42 25.6653C28.2166 25.8801 28.1031 26.1659 28.1032 26.4632L27.8471 65.1655H20.1217C19.9794 65.1591 19.8374 65.1813 19.7037 65.2308C19.5701 65.2803 19.4475 65.3561 19.3431 65.4539C19.2388 65.5517 19.1547 65.6695 19.0958 65.8004C19.0369 65.9313 19.0043 66.0728 19 66.2165V71.1269C19.0066 73.3529 19.8609 75.4909 21.3857 77.0978C22.9104 78.7047 24.9888 79.6572 27.1899 79.7579V79.7824H60.9078V79.7503C61.1808 79.7607 61.2929 79.7824 61.4687 79.7824H61.492C63.7646 79.7787 65.9428 78.864 67.5484 77.2392C69.154 75.6145 70.0559 73.4124 70.0559 71.1165V46.286C70.3288 46.3012 70.6167 46.3096 70.8971 46.3096C75.0131 46.3096 78.9606 44.6578 81.871 41.7174C84.7815 38.7771 86.4166 34.7892 86.4166 30.6309C86.4166 26.4726 84.7815 22.4847 81.871 19.5443C78.9606 16.604 75.0131 14.9521 70.8971 14.9521L70.9008 14.9512ZM27.6059 77.5765H27.5994C25.9022 77.5743 24.275 76.8936 23.073 75.6832C21.871 74.4728 21.1921 72.831 21.1844 71.1165V67.3714H52.8534V71.1005C52.8543 72.2405 53.0781 73.3691 53.512 74.4215C53.9459 75.4739 54.5813 76.4293 55.3818 77.2328C55.4968 77.3489 55.6389 77.4377 55.7557 77.5756L27.6059 77.5765ZM67.8696 71.1165C67.8698 72.8276 67.198 74.4689 66.0016 75.68C64.8052 76.8912 63.182 77.5733 61.4883 77.5765H61.4677C59.7669 77.5736 58.1362 76.8911 56.9316 75.678C55.727 74.4649 55.0462 72.8197 55.0378 71.1014V66.2165C55.0425 66.077 55.0188 65.938 54.9681 65.8082C54.9173 65.6784 54.8407 65.5605 54.743 65.4618C54.6452 65.3631 54.5284 65.2858 54.3999 65.2347C54.2713 65.1836 54.1337 65.1597 53.9956 65.1646H30.0296L30.2801 27.5161H55.6949C55.5013 28.5259 55.4012 29.5518 55.3958 30.5804C55.3936 32.7548 55.8425 34.9056 56.7138 36.894H46.3992C46.1095 36.894 45.8317 37.0102 45.6269 37.2172C45.4221 37.4241 45.307 37.7048 45.307 37.9974C45.307 38.29 45.4221 38.5707 45.6269 38.7776C45.8317 38.9846 46.1095 39.1008 46.3992 39.1008H57.8962C59.0112 40.8721 60.4693 42.3972 62.1828 43.5846C63.8962 44.772 65.8296 45.5971 67.8668 46.0103L67.8696 71.1165ZM70.9008 44.1028C68.2663 44.1028 65.6909 43.3136 63.5003 41.8348C61.3098 40.3561 59.6024 38.2544 58.5942 35.7954C57.586 33.3364 57.3222 30.6306 57.8362 28.0201C58.3502 25.4097 59.6188 23.0118 61.4818 21.1298C63.3447 19.2477 65.7182 17.9661 68.3021 17.4468C70.8861 16.9276 73.5644 17.1941 75.9984 18.2126C78.4324 19.2312 80.5128 20.956 81.9765 23.169C83.4402 25.3821 84.2214 27.9839 84.2214 30.6455C84.2215 32.4128 83.8771 34.1628 83.2077 35.7955C82.5383 37.4283 81.5571 38.9119 80.3202 40.1615C79.0832 41.4112 77.6147 42.4024 75.9985 43.0787C74.3824 43.7549 72.6502 44.1029 70.9008 44.1028V44.1028Z" fill="#BD4040"/>
<path d="M39.3923 44.2377C38.7276 44.2594 38.0838 44.4784 37.5415 44.8673C36.9991 45.2563 36.5821 45.798 36.3425 46.4248C36.103 47.0517 36.0514 47.7359 36.1943 48.3922C36.3372 49.0484 36.6683 49.6476 37.1461 50.115C37.624 50.5824 38.2275 50.8973 38.8814 51.0204C39.5352 51.1434 40.2105 51.0693 40.8229 50.8071C41.4354 50.545 41.9578 50.1064 42.3251 49.5462C42.6923 48.986 42.8882 48.3289 42.8882 47.657C42.8724 46.7356 42.4955 45.8581 41.8401 45.217C41.1848 44.576 40.3045 44.2238 39.3923 44.2377V44.2377ZM39.3923 48.8647C39.1593 48.8444 38.9372 48.756 38.7531 48.6103C38.569 48.4645 38.4308 48.2679 38.3555 48.0442C38.2801 47.8205 38.2709 47.5795 38.3288 47.3506C38.3867 47.1217 38.5094 46.9147 38.6817 46.755C38.8541 46.5953 39.0687 46.4897 39.2995 46.4512C39.5302 46.4126 39.7671 46.4427 39.9812 46.5379C40.1953 46.633 40.3773 46.789 40.5051 46.9869C40.6329 47.1848 40.701 47.416 40.7009 47.6523C40.6864 47.9887 40.5405 48.3056 40.2953 48.5337C40.0501 48.7618 39.7254 48.8825 39.3923 48.8694V48.8647Z" fill="#BD4040"/>
<path d="M45.3027 47.6498C45.3027 47.9423 45.4178 48.2228 45.6225 48.4297C45.8272 48.6365 46.1049 48.7527 46.3945 48.7527H60.9536C61.2432 48.7527 61.521 48.6365 61.7259 48.4295C61.9307 48.2226 62.0458 47.9419 62.0458 47.6493C62.0458 47.3567 61.9307 47.076 61.7259 46.8691C61.521 46.6622 61.2432 46.5459 60.9536 46.5459H46.3945C46.251 46.5459 46.109 46.5745 45.9765 46.6299C45.844 46.6854 45.7236 46.7668 45.6222 46.8693C45.5208 46.9718 45.4404 47.0935 45.3856 47.2274C45.3308 47.3613 45.3026 47.5049 45.3027 47.6498V47.6498Z" fill="#BD4040"/>
<path d="M39.3923 34.6449C38.7276 34.6666 38.0838 34.8856 37.5415 35.2746C36.9991 35.6635 36.5821 36.2052 36.3425 36.8321C36.103 37.4589 36.0514 38.1432 36.1943 38.7994C36.3372 39.4557 36.6683 40.0549 37.1461 40.5223C37.624 40.9897 38.2275 41.3046 38.8814 41.4277C39.5352 41.5508 40.2105 41.4766 40.8229 41.2145C41.4354 40.9523 41.9578 40.5137 42.3251 39.9535C42.6923 39.3933 42.8882 38.7362 42.8882 38.0643C42.8722 37.1429 42.4952 36.2655 41.8399 35.6245C41.1846 34.9836 40.3044 34.6313 39.3923 34.6449V34.6449ZM39.3923 39.2777C39.1593 39.2573 38.9372 39.1689 38.7531 39.0232C38.569 38.8775 38.4308 38.6808 38.3555 38.4571C38.2801 38.2334 38.2709 37.9924 38.3288 37.7635C38.3867 37.5346 38.5094 37.3276 38.6817 37.1679C38.8541 37.0082 39.0687 36.9027 39.2995 36.8641C39.5302 36.8255 39.7671 36.8557 39.9812 36.9508C40.1953 37.0459 40.3773 37.202 40.5051 37.3998C40.6329 37.5977 40.701 37.8289 40.7009 38.0652C40.6852 38.4008 40.5388 38.7165 40.2937 38.9436C40.0486 39.1707 39.7247 39.2908 39.3923 39.2777V39.2777Z" fill="#BD4040"/>
<path d="M39.3923 53.8266C38.7276 53.8483 38.0838 54.0673 37.5415 54.4562C36.9991 54.8452 36.5821 55.3869 36.3425 56.0137C36.103 56.6406 36.0514 57.3248 36.1943 57.9811C36.3372 58.6373 36.6683 59.2366 37.1461 59.704C37.624 60.1714 38.2275 60.4863 38.8814 60.6093C39.5352 60.7324 40.2105 60.6583 40.8229 60.3961C41.4354 60.1339 41.9578 59.6954 42.3251 59.1352C42.6923 58.5749 42.8882 57.9179 42.8882 57.2459C42.8724 56.3245 42.4955 55.447 41.8401 54.8059C41.1848 54.1649 40.3045 53.8127 39.3923 53.8266ZM39.3923 58.4537C39.1593 58.4333 38.9372 58.3449 38.7531 58.1992C38.569 58.0535 38.4308 57.8568 38.3555 57.6331C38.2801 57.4094 38.2709 57.1684 38.3288 56.9395C38.3867 56.7106 38.5094 56.5036 38.6817 56.3439C38.8541 56.1842 39.0687 56.0786 39.2995 56.0401C39.5302 56.0015 39.7671 56.0317 39.9812 56.1268C40.1953 56.2219 40.3773 56.3779 40.5051 56.5758C40.6329 56.7737 40.701 57.0049 40.7009 57.2412C40.6866 57.5777 40.5408 57.8948 40.2956 58.1229C40.0503 58.3511 39.7255 58.4717 39.3923 58.4584V58.4537Z" fill="#BD4040"/>
<path d="M60.954 56.2021H46.3949C46.1053 56.2021 45.8275 56.3184 45.6226 56.5253C45.4178 56.7323 45.3027 57.0129 45.3027 57.3056C45.3027 57.5982 45.4178 57.8788 45.6226 58.0858C45.8275 58.2927 46.1053 58.409 46.3949 58.409H60.954C61.2437 58.409 61.5215 58.2927 61.7264 58.0858C61.9312 57.8788 62.0463 57.5982 62.0463 57.3056C62.0463 57.0129 61.9312 56.7323 61.7264 56.5253C61.5215 56.3184 61.2437 56.2021 60.954 56.2021Z" fill="#BD4040"/>
</svg>
