<svg width="21" height="20" viewBox="0 0 21 20" fill="none" xmlns="http://www.w3.org/2000/svg">
<path d="M14.9969 10.9106C15.3531 10.9117 15.7031 10.8203 16.01 10.646C16.317 10.4717 16.5697 10.221 16.7416 9.92006L20.3098 3.67991C20.3939 3.53417 20.437 3.36978 20.4349 3.20302C20.4329 3.03625 20.3857 2.8729 20.2981 2.72912C20.2105 2.58534 20.0855 2.46612 19.9354 2.38327C19.7854 2.30042 19.6155 2.2568 19.4426 2.25674H4.68939L3.75277 0.333984H0.493164V2.25731H2.48661L6.07517 9.55489L4.72946 11.9005C4.56215 12.1935 4.47682 12.5234 4.48185 12.8578C4.48688 13.1922 4.58211 13.5196 4.75816 13.8078C4.93421 14.0959 5.18501 14.3349 5.48589 14.5012C5.78676 14.6675 6.12734 14.7553 6.4741 14.7561H18.436V12.8333H6.4741L7.5704 10.9106H14.9969ZM5.63677 4.18007H17.7482L14.9969 8.98724H7.99924L5.63677 4.18007ZM6.4741 15.7177C6.07983 15.7177 5.69442 15.8305 5.3666 16.0418C5.03878 16.2531 4.78327 16.5533 4.6324 16.9047C4.48152 17.256 4.44204 17.6426 4.51896 18.0156C4.59587 18.3886 4.78573 18.7312 5.06452 19.0001C5.34331 19.269 5.69851 19.4521 6.0852 19.5263C6.47189 19.6005 6.8727 19.5624 7.23696 19.4169C7.60121 19.2713 7.91255 19.0249 8.13159 18.7087C8.35063 18.3925 8.46754 18.0208 8.46754 17.6405C8.46786 17.3879 8.41651 17.1377 8.31644 16.9043C8.21638 16.6709 8.06955 16.4588 7.88438 16.2802C7.69921 16.1016 7.47933 15.96 7.23733 15.8635C6.99533 15.767 6.73597 15.7174 6.4741 15.7177V15.7177ZM16.4425 15.7177C16.0483 15.7177 15.6628 15.8305 15.335 16.0418C15.0072 16.2531 14.7517 16.5533 14.6008 16.9047C14.4499 17.256 14.4105 17.6426 14.4874 18.0156C14.5643 18.3886 14.7542 18.7312 15.0329 19.0001C15.3117 19.269 15.6669 19.4521 16.0536 19.5263C16.4403 19.6005 16.8411 19.5624 17.2054 19.4169C17.5696 19.2713 17.881 19.0249 18.1 18.7087C18.3191 18.3925 18.436 18.0208 18.436 17.6405C18.4363 17.3879 18.3849 17.1376 18.2848 16.9042C18.1847 16.6707 18.0378 16.4586 17.8526 16.28C17.6674 16.1014 17.4474 15.9598 17.2053 15.8633C16.9633 15.7668 16.7038 15.7174 16.4419 15.7177H16.4425Z" fill="#414141"/>
</svg>
