<svg width="95" height="95" viewBox="0 0 95 95" fill="none" xmlns="http://www.w3.org/2000/svg">
<path d="M61.9022 65.3125C61.6527 65.3125 61.4088 65.3873 61.2013 65.5273C60.9939 65.6674 60.8322 65.8664 60.7367 66.0993C60.6412 66.3322 60.6162 66.5885 60.6649 66.8357C60.7135 67.083 60.8337 67.3101 61.0101 67.4883C61.1866 67.6666 61.4114 67.7879 61.6561 67.8371C61.9008 67.8863 62.1545 67.8611 62.3851 67.7646C62.6156 67.6681 62.8126 67.5048 62.9513 67.2952C63.0899 67.0856 63.1639 66.8391 63.1639 66.5871C63.1636 66.2491 63.0306 65.925 62.7941 65.6861C62.5575 65.4471 62.2368 65.3127 61.9022 65.3125V65.3125Z" fill="#BD4040"/>
<path d="M65.016 61.1934L59.0179 59.1739L56.8674 54.8224C58.8266 52.7997 60.1312 50.2234 60.6084 47.4348L60.8772 45.8054H63.1737C64.1763 45.8035 65.1373 45.4003 65.8464 44.6842C66.5554 43.9681 66.9547 42.9973 66.9568 41.9844V33.9523C66.9224 28.903 64.9129 24.0723 61.3665 20.5141C57.8201 16.9559 53.0248 14.959 48.0267 14.959C43.0285 14.959 38.2332 16.9559 34.6869 20.5141C31.1405 24.0723 29.1309 28.903 29.0966 33.9523V41.9844C29.0976 42.7751 29.3407 43.5461 29.7926 44.1916C30.2445 44.8371 30.8831 45.3256 31.6207 45.5899V47.0845C31.6219 48.0978 32.0206 49.0694 32.7296 49.7863C33.4385 50.5032 34.3998 50.9069 35.4029 50.9091H36.5139C37.0588 52.1092 37.7709 53.2243 38.6286 54.2204C38.8078 54.4277 38.9933 54.6296 39.185 54.8251L37.0345 59.1703L31.0365 61.1934C24.0617 63.5434 19 70.9609 19 78.8274C18.9994 78.995 19.0316 79.1611 19.0946 79.3161C19.1576 79.4712 19.2503 79.6121 19.3673 79.7309C19.4843 79.8497 19.6234 79.9441 19.7765 80.0085C19.9297 80.073 20.0939 80.1062 20.2598 80.1065H75.7908C75.9569 80.1064 76.1212 80.0732 76.2745 80.0088C76.4278 79.9444 76.5671 79.8501 76.6843 79.7313C76.8014 79.6125 76.8943 79.4715 76.9575 79.3164C77.0207 79.1613 77.0529 78.9951 77.0525 78.8274C77.0525 70.9609 71.9907 63.5434 65.016 61.1934ZM64.4345 41.9844C64.434 42.3223 64.3009 42.6462 64.0644 42.8851C63.8279 43.1241 63.5073 43.2585 63.1728 43.259H61.2446C61.5654 40.7488 61.7822 38.0774 61.8655 35.4459C61.8655 35.3717 61.87 35.2993 61.8727 35.2268H64.4345V41.9844ZM32.8823 43.259C32.5477 43.2587 32.2268 43.1244 31.9902 42.8854C31.7535 42.6465 31.6203 42.3224 31.6198 41.9844V35.2268H34.1816C34.1857 35.3596 34.1902 35.4933 34.195 35.6279C34.195 35.6324 34.195 35.6369 34.195 35.6414C34.2846 38.2005 34.4943 40.8013 34.8079 43.2581H32.8814L32.8823 43.259ZM35.4029 48.3591C35.0697 48.3567 34.7509 48.2214 34.5159 47.9827C34.281 47.7439 34.1489 47.4211 34.1484 47.0845V45.809H35.1789L35.4477 47.4384C35.4987 47.748 35.5615 48.0558 35.6349 48.3618L35.4029 48.3591ZM34.1484 32.6768H31.6682C31.9882 28.5154 33.8504 24.6292 36.8828 21.7943C39.9153 18.9595 43.8947 17.3848 48.0262 17.3848C52.1578 17.3848 56.1372 18.9595 59.1696 21.7943C62.2021 24.6292 64.0643 28.5154 64.3843 32.6768H61.9067C61.8642 29.286 60.503 26.0481 58.1173 23.6627C55.7316 21.2772 52.5128 19.9355 49.1561 19.9275H46.8972C43.5409 19.936 40.3226 21.2779 37.9372 23.6633C35.5519 26.0487 34.191 29.2863 34.1484 32.6768ZM46.8963 22.4775H49.1552C51.8732 22.4864 54.4768 23.5842 56.3945 25.5301C58.3122 27.476 59.3875 30.111 59.3844 32.8569C59.3844 33.258 59.3844 33.6074 59.3745 33.9251C59.3745 33.9251 59.3745 33.9333 59.3745 33.9378L57.7957 33.7097C53.4817 33.0787 49.4838 31.0601 46.3946 27.9533C46.2769 27.8344 46.1372 27.7402 45.9835 27.676C45.8297 27.6118 45.6649 27.579 45.4985 27.5794C43.8195 27.5835 42.162 27.9616 40.6442 28.6868C39.1264 29.412 37.7856 30.4665 36.7174 31.7752C36.978 29.2291 38.1621 26.8705 40.0415 25.1538C41.9209 23.4372 44.3627 22.4838 46.8963 22.4775V22.4775ZM38.2505 48.3591C37.6188 46.2363 36.8957 39.9884 36.7362 35.9854L38.4386 33.697C39.2133 32.659 40.2019 31.8035 41.3361 31.1896C42.4703 30.5756 43.723 30.2179 45.0075 30.1412C48.4298 33.4213 52.7741 35.5496 57.4427 36.2335L59.3011 36.505C59.1765 39.1682 58.9229 41.8396 58.5592 44.2973C58.4436 45.0875 58.3522 45.5963 58.1201 47.013C57.8018 49.045 56.9172 50.9433 55.5698 52.4859C54.2224 54.0284 52.468 55.1513 50.5118 55.7231C48.3882 56.2766 46.1429 56.1042 44.1264 55.2328C42.1099 54.3614 40.4358 52.8401 39.3651 50.9064H41.9377C42.1993 51.6515 42.6828 52.2967 43.3218 52.7532C43.9608 53.2098 44.7239 53.4554 45.5066 53.4564H48.0307C49.0349 53.4564 49.9979 53.0534 50.708 52.3361C51.418 51.6187 51.8169 50.6458 51.8169 49.6314C51.8169 48.6169 51.418 47.644 50.708 46.9266C49.9979 46.2093 49.0349 45.8063 48.0307 45.8063H45.5021C44.719 45.8063 43.9551 46.0515 43.3157 46.5082C42.6762 46.9648 42.1926 47.6105 41.9314 48.3563L38.2505 48.3591ZM45.3964 58.3058C46.9409 58.6368 48.533 58.673 50.0907 58.4126L47.8578 60.7951L45.3964 58.3058ZM46.1257 62.6509L42.1231 66.9254C41.0205 64.7928 40.0761 62.5803 39.2979 60.3063L40.8015 57.2693L46.1257 62.6509ZM55.0395 56.8393L56.7554 60.3063C55.9771 62.581 55.0325 64.794 53.9293 66.9272L49.6499 62.5993L55.0395 56.8393ZM44.2405 49.6345C44.2407 49.2966 44.3737 48.9725 44.6103 48.7335C44.8468 48.4946 45.1676 48.3602 45.5021 48.36H48.0262C48.361 48.36 48.682 48.4943 48.9187 48.7334C49.1553 48.9725 49.2883 49.2968 49.2883 49.635C49.2883 49.9731 49.1553 50.2974 48.9187 50.5366C48.682 50.7757 48.361 50.91 48.0262 50.91H45.5021C45.1675 50.9095 44.8467 50.775 44.6102 50.5358C44.3737 50.2967 44.2407 49.9726 44.2405 49.6345V49.6345ZM21.5743 77.5601C22.0743 71.2443 26.2337 65.5033 31.8348 63.6195L37.1474 61.8307C38.1219 64.554 39.3236 67.1886 40.7397 69.7063L40.7468 69.7189C41.7875 71.5661 42.9411 73.3459 44.2011 75.048L45.753 77.5601H21.5743ZM48.0262 76.4195L46.3148 73.6431C46.2957 73.6117 46.2754 73.5816 46.2539 73.5526C45.2313 72.174 44.2819 70.7414 43.4099 69.2609L47.9106 64.4523L52.6534 69.2437C51.7787 70.7303 50.8261 72.1687 49.7995 73.5526C49.7395 73.6359 49.8291 73.5046 48.0262 76.4195ZM50.2995 77.5601L51.8523 75.0426C53.1221 73.3275 54.2838 71.5334 55.3307 69.671L55.3495 69.6375C56.7493 67.1413 57.9384 64.5304 58.9041 61.8325L64.2167 63.6213C69.8161 65.5078 73.9773 71.2488 74.4773 77.5619H50.2995V77.5601Z" fill="#BD4040"/>
<path d="M70.6767 72.3909C69.827 70.6778 68.6059 69.1802 67.1042 68.0096C66.9728 67.9075 66.8228 67.8325 66.6628 67.789C66.5027 67.7454 66.3357 67.7342 66.1714 67.7558C66.007 67.7775 65.8485 67.8316 65.7048 67.9151C65.5611 67.9987 65.4352 68.11 65.3341 68.2427C65.233 68.3755 65.1588 68.527 65.1157 68.6887C65.0726 68.8504 65.0614 69.0191 65.0829 69.1851C65.1043 69.3512 65.1579 69.5114 65.2406 69.6565C65.3233 69.8016 65.4334 69.9289 65.5648 70.031C66.7645 70.9662 67.74 72.1627 68.4187 73.5315C68.5735 73.8248 68.8356 74.0454 69.149 74.1464C69.4625 74.2474 69.8026 74.2208 70.0969 74.0722C70.3913 73.9237 70.6166 73.6649 70.7248 73.351C70.8331 73.0372 70.8159 72.693 70.6767 72.3918V72.3909Z" fill="#BD4040"/>
</svg>
