<svg width="26" height="23" viewBox="0 0 26 23" fill="none" xmlns="http://www.w3.org/2000/svg">
<g clip-path="url(#clip0_1818_2003)">
<path d="M23.8458 11.0972C23.8458 11.3143 23.8458 11.5991 23.8458 11.8839C23.8458 15.1912 23.8474 18.4969 23.8458 21.8042C23.8458 22.8615 23.7107 22.9984 22.701 22.9984C16.2535 22.9984 9.80589 22.9984 3.35677 22.9984C2.33006 22.9984 2.19182 22.8615 2.19182 21.8215C2.18872 18.5142 2.19182 15.2085 2.19182 11.9012C2.19182 11.6149 2.19182 11.3285 2.19182 11.0138C1.04396 10.3908 0.256462 9.48762 0.0390058 8.18484C-0.0215713 7.81824 -0.0246778 7.3588 0.141521 7.05199C1.37481 4.78 2.65625 2.53475 3.92681 0.281639C3.97652 0.193529 4.06194 0.125872 4.17533 0H21.9415C22.3919 0.785128 22.8719 1.61746 23.3441 2.45293C24.0757 3.74942 24.8042 5.04748 25.528 6.34868C26.2999 7.7317 26.1291 9.02976 24.9999 10.161C24.6721 10.4883 24.2807 10.7495 23.8458 11.0972ZM22.4385 21.5934V11.3726C20.9428 11.2121 20.5374 11.0122 19.1736 9.78027C18.3737 10.7495 17.3656 11.3316 16.0966 11.3254C14.8338 11.3191 13.835 10.718 13.0367 9.75824C11.3001 11.7455 8.77143 11.9374 6.81277 9.7551C5.99886 10.8014 4.90692 11.3096 3.60839 11.3663V21.6107H5.72238C5.72238 21.3086 5.72238 21.0521 5.72238 20.7941C5.72238 18.9312 5.72238 17.0683 5.72238 15.2038C5.72393 13.2779 6.55958 12.444 8.48252 12.4409C8.81958 12.4409 9.15508 12.4393 9.49214 12.4409C11.1541 12.4519 12.0488 13.3346 12.0597 15.0071C12.0721 16.9235 12.0628 18.8384 12.0628 20.7548C12.0628 21.0332 12.0628 21.3102 12.0628 21.5934H22.4354H22.4385ZM24.0866 6.56424C23.063 4.74381 22.0844 3.00363 21.1338 1.31379H4.9007C3.93302 3.04453 2.96379 4.78 1.9666 6.56424H24.085H24.0866ZM10.685 21.617C10.685 19.2411 10.7006 16.9393 10.6726 14.6374C10.6664 14.1323 10.3185 13.8459 9.78881 13.8491C9.27157 13.8522 8.75434 13.8459 8.23555 13.8491C7.36883 13.857 7.12342 14.0945 7.12031 14.9568C7.1141 16.5034 7.11876 18.0516 7.11876 19.5983C7.11876 20.2686 7.11876 20.9373 7.11876 21.6138H10.685V21.617ZM7.60182 8.02278C8.02275 9.37905 8.89569 9.99897 10.1585 9.91401C11.2147 9.84321 12.0317 9.09584 12.1995 8.02278H7.60337H7.60182ZM13.8117 8.02435C14.1659 9.32556 15.0326 9.96908 16.2659 9.9203C17.3547 9.87625 18.178 9.1572 18.4047 8.02435H13.8117ZM20.0543 8.03694C20.1832 9.09427 21.0297 9.86051 22.1077 9.92345C23.3721 9.99897 24.2962 9.31297 24.6069 8.03694H20.0543ZM6.02216 8.04638H1.43228C1.78332 9.30668 2.6081 9.94391 3.80876 9.92188C4.92245 9.903 5.76276 9.21227 6.02216 8.04638Z" fill="black"/>
<path d="M16.7038 18.8461C16.1601 18.8461 15.6165 18.8681 15.0728 18.843C13.8427 18.7847 13.1872 18.083 13.1748 16.8337C13.167 16.0203 13.1639 15.2068 13.1748 14.3949C13.1903 13.2511 13.8722 12.4896 14.9781 12.4534C16.1415 12.4156 17.308 12.4156 18.4714 12.4534C19.5586 12.488 20.2545 13.2007 20.2964 14.3037C20.3306 15.1942 20.3291 16.0879 20.2964 16.9785C20.2561 18.0846 19.5788 18.7753 18.4853 18.8414C17.892 18.8776 17.2956 18.8477 16.7007 18.8477L16.7038 18.8461ZM18.8737 13.9135H14.6271V17.3781H18.8737V13.9135Z" fill="black"/>
</g>
<defs>
<clipPath id="clip0_1818_2003">
<rect width="26" height="23" fill="white"/>
</clipPath>
</defs>
</svg>
