<svg width="24" height="24" viewBox="0 0 24 24" fill="none" xmlns="http://www.w3.org/2000/svg">
<g clip-path="url(#clip0_1818_2008)">
<path d="M3.78792 9.51141C4.39497 9.51141 4.95275 9.50352 5.5094 9.51367C6.21726 9.52607 6.57903 9.88352 6.58015 10.5883C6.58463 13.4445 6.58463 16.2996 6.58015 19.1558C6.58015 19.7253 6.27214 20.1831 5.76701 20.1876C4.76458 20.1978 3.73528 20.2451 2.76309 20.0444C1.13233 19.7084 0.0839811 18.3011 0.0257395 16.5725C-0.0134615 15.428 -0.00226122 14.2801 0.0257395 13.1344C0.0548603 11.8997 0.635036 10.9626 1.6397 10.2658C1.79315 10.1598 1.94771 9.93427 1.95667 9.7561C2.26804 4.00079 7.11553 -0.361922 12.8288 0.0237199C17.0031 0.305622 19.8122 2.52475 21.4653 6.32367C21.751 6.97881 21.5538 7.60914 21.0285 7.80647C20.5212 7.99704 20.0115 7.69484 19.7383 7.04195C17.5598 1.82113 11.2921 0.121822 6.89824 3.57907C5.16556 4.94235 4.14521 6.75328 3.79128 8.93972C3.7644 9.10322 3.78792 9.27462 3.78792 9.51254V9.51141ZM4.61674 18.4488V11.4486C4.26057 11.4486 3.9436 11.4283 3.62999 11.452C2.71717 11.5231 1.98131 12.2594 1.95779 13.1795C1.92867 14.341 1.93091 15.5047 1.96003 16.6672C1.98131 17.5039 2.53573 18.1647 3.35335 18.3428C3.74648 18.4285 4.16089 18.4139 4.61674 18.4488Z" fill="black"/>
<path d="M19.3731 20.2168C19.1222 22.1326 18.0604 23.064 16.1989 23.0651C15.733 23.0651 15.2659 23.0798 14.8 23.0618C14.1638 23.037 13.6228 23.0866 13.0886 23.5962C12.374 24.2785 11.2674 24.0507 10.6167 23.2523C10.0163 22.5149 10.1059 21.4786 10.8272 20.8302C11.5329 20.1965 12.7391 20.2078 13.3596 20.9148C13.6172 21.2091 13.8692 21.2847 14.2243 21.2745C14.9142 21.2553 15.6042 21.2734 16.2941 21.2677C17.0613 21.261 17.4141 20.9058 17.4153 20.1255C17.4186 17.0088 17.4153 13.8909 17.4164 10.7742C17.4164 9.80673 17.7121 9.50115 18.691 9.51693C19.5265 9.53159 20.3822 9.48311 21.192 9.64661C22.732 9.9567 23.8498 11.2828 23.9372 12.8625C24.0089 14.1537 24.0223 15.4549 23.9517 16.746C23.842 18.7419 22.3176 20.1232 20.2388 20.2157C19.9622 20.2281 19.6844 20.2179 19.3719 20.2179L19.3731 20.2168ZM19.3641 18.1927C20.9198 18.5344 22.172 17.6876 22.0623 16.0537C22.0029 15.1753 22.013 14.2878 22.06 13.4072C22.1339 12.036 21.0946 10.9434 19.363 11.4023V18.1927H19.3641Z" fill="black"/>
</g>
<defs>
<clipPath id="clip0_1818_2008">
<rect width="24" height="24" fill="white"/>
</clipPath>
</defs>
</svg>
