<svg width="129" height="122" viewBox="0 0 129 122" fill="none" xmlns="http://www.w3.org/2000/svg">
<path d="M0.197704 96.6788V75.4445C0.197704 73.2414 1.07132 72.3818 3.30023 72.3818C7.65463 72.3818 12.009 72.3818 16.3634 72.3818C18.3229 72.3818 19.2455 73.2965 19.2782 75.228C19.2782 75.3628 19.2782 75.4996 19.2782 75.6364C19.2925 78.2539 19.2924 78.2539 21.8622 78.2539C24.8892 78.2539 27.9182 78.2254 30.9432 78.2744C31.719 78.2865 32.4866 78.4351 33.2109 78.7133C38.6546 80.8511 44.0758 83.0439 49.5134 85.1939C49.989 85.365 50.4919 85.4473 50.9973 85.4369C59.8088 85.4532 68.6183 85.4369 77.4299 85.4573C82.4674 85.4716 86.0699 89.4959 85.5739 94.4778C85.1902 98.3102 81.8836 101.51 77.9626 101.561C71.0922 101.651 64.2197 101.602 57.3472 101.581C55.8225 101.581 54.7305 100.425 54.7713 99.0003C54.8121 97.5752 55.9592 96.5502 57.6085 96.5502C63.9686 96.5502 70.3301 96.5502 76.693 96.5502C77.1015 96.5599 77.5103 96.5489 77.9177 96.5175C78.6514 96.4363 79.3303 96.0905 79.8277 95.5449C80.3251 94.9993 80.6068 94.2912 80.6201 93.5529C80.6279 92.814 80.3656 92.0978 79.8826 91.5387C79.3997 90.9797 78.7292 90.6163 77.9973 90.5168C77.5904 90.4765 77.1813 90.4629 76.7726 90.476C68.0305 90.476 59.2863 90.4882 50.5441 90.4515C49.636 90.4403 48.7372 90.2661 47.8907 89.9369C42.5695 87.8605 37.2768 85.7105 31.9699 83.6075C31.4041 83.3866 30.8034 83.269 30.1962 83.2603C26.8977 83.2277 23.5972 83.2726 20.2987 83.2236C19.4639 83.2236 19.2782 83.4931 19.2782 84.2731C19.3027 92.338 19.3027 100.403 19.2782 108.468C19.2782 109.272 19.4945 109.552 20.2987 109.501C27.5202 109.054 34.6009 110.273 41.704 111.284C52.4417 112.811 63.1848 114.308 73.9334 115.775C74.3825 115.837 74.9274 115.62 75.3499 115.39C90.0066 107.394 104.658 99.3876 119.304 91.3703C120.228 90.8639 121.159 90.3698 122.073 89.8471C123.751 88.8915 124.319 87.1601 123.474 85.6104C122.629 84.0607 120.834 83.6013 119.155 84.5181C110.945 88.9977 102.74 93.4835 94.5386 97.9754C93.7221 98.4164 92.9383 98.8778 92.1219 99.2964C90.738 100.005 89.2643 99.5945 88.5989 98.3449C87.9335 97.0953 88.3642 95.6314 89.7378 94.8739C98.8596 89.8695 107.973 84.8488 117.128 79.9057C121.026 77.8007 125.788 79.3565 127.921 83.2706C128.427 84.1942 128.746 85.2089 128.858 86.2561C128.971 87.3033 128.876 88.3625 128.578 89.3727C128.28 90.3829 127.785 91.3243 127.122 92.1426C126.459 92.9609 125.641 93.64 124.715 94.1409C117.215 98.2877 109.686 102.377 102.168 106.49C93.7575 111.092 85.3474 115.697 76.9379 120.306C75.9634 120.861 74.8272 121.063 73.7211 120.878C60.3558 118.979 46.9824 117.203 33.6211 115.214C29.1837 114.557 24.7545 114.51 20.3008 114.489C19.5068 114.489 19.2088 114.693 19.2659 115.524C19.3169 116.51 19.3169 117.497 19.2659 118.483C19.2149 119.988 18.2454 120.986 16.7431 120.994C12.0812 121.016 7.42058 121.016 2.76137 120.994C1.12847 120.994 0.193641 119.947 0.1916 118.219C0.188878 111.039 0.1909 103.859 0.197704 96.6788ZM14.21 77.4719H5.25766V115.918H14.21V77.4719Z" fill="#BD4040"/>
<path d="M81.9181 45.6231C81.1649 45.9273 80.3464 46.2356 79.5443 46.5868C78.1481 47.1993 76.7724 46.7767 76.1335 45.5251C75.4722 44.2265 75.9192 42.7646 77.3337 42.0929C82.6407 39.559 88.0558 39.2344 93.5056 41.6355C95.1385 42.3583 96.2427 43.7406 97.2041 45.2025C99.2942 48.3836 100.733 51.8811 101.88 55.4807C103.16 59.4948 104.285 63.56 105.424 67.619C105.909 69.3463 105.152 70.6817 103.638 71.0451C102.189 71.384 100.984 70.5183 100.566 68.8155C99.0758 62.9087 97.4348 57.0488 94.9099 51.4809C94.4573 50.4915 93.9531 49.5264 93.3994 48.5898C91.9584 46.1397 90.3908 45.2678 87.223 45.2025C87.7149 45.9335 88.0762 46.597 88.5538 47.1626C90.5949 49.5923 92.1646 52.267 92.8994 55.3786C94.9936 64.2501 90.2806 72.85 81.4568 75.8677C72.6943 78.8651 64.9441 76.6844 58.2268 70.6102C52.2748 65.2281 48.8376 58.327 47.1006 50.6009C44.4471 38.8812 45.5003 27.529 51.091 16.775C54.1404 10.909 58.4003 6.10681 64.4583 3.18709C71.0042 0.0305191 77.6175 0.0672588 84.1123 3.32796C93.5566 8.07097 96.2938 20.4482 89.9132 29.1624C89.0967 30.2792 88.3517 31.4512 87.4393 32.7947C88.5211 32.9315 89.3396 33.0744 90.1643 33.1316C96.5265 33.5583 101.088 36.8639 104.497 42.0418C107.94 47.2749 110.135 53.0531 111.782 59.0395C112.827 62.8372 113.607 66.7104 114.45 70.5632C114.592 71.2238 114.577 71.9087 114.405 72.5621C114.115 73.6034 112.996 74.2446 111.941 74.169C110.729 74.0792 109.9 73.2625 109.608 71.9721C108.671 67.864 107.836 63.7254 106.72 59.6643C105.291 54.5027 103.374 49.5208 100.417 45.0044C99.1207 43.028 97.6001 41.2598 95.6079 39.9286C93.7852 38.7036 91.7033 38.3626 89.6091 38.138C87.4822 37.9073 85.337 37.7623 83.1979 37.7296C81.7691 37.7113 80.5016 37.3723 79.4075 36.4923C78.4189 35.7155 77.4757 34.8824 76.5826 33.9973C76.3425 33.7658 76.1522 33.4877 76.0233 33.18C75.8944 32.8723 75.8297 32.5415 75.8332 32.2079C75.8366 31.8743 75.9081 31.545 76.0433 31.24C76.1785 30.9351 76.3745 30.6609 76.6193 30.4344C77.5807 29.4911 79.0483 29.5013 80.1178 30.465C80.8139 31.0919 81.5017 31.7289 82.0447 32.225C83.6102 29.7545 85.1737 27.4269 86.6004 25.0176C90.4112 18.582 88.1517 8.8734 78.3278 6.458C72.5861 5.04714 67.471 6.45799 62.9132 10.0494C57.9573 13.9451 54.8466 19.1496 52.9994 25.0707C49.3581 36.7475 49.9622 48.1814 55.6529 59.1375C58.2451 64.1337 61.9008 68.2009 67.1363 70.5816C71.9084 72.754 76.7194 72.6867 81.4486 70.4652C88.462 67.1719 90.55 58.1044 85.7983 51.8035C85.0819 50.8541 84.2838 49.9557 83.6531 48.945C83.0224 47.9344 82.5488 46.8604 81.9181 45.6231Z" fill="#BD4040"/>
</svg>
