<svg width="24" height="24" viewBox="0 0 24 24" fill="none" xmlns="http://www.w3.org/2000/svg">
<path d="M21.0001 9.99984H7.82806L11.4141 6.41384C11.7784 6.03663 11.98 5.53143 11.9754 5.00704C11.9709 4.48264 11.7605 3.98102 11.3897 3.6102C11.0189 3.23938 10.5173 3.02905 9.99286 3.02449C9.46847 3.01993 8.96327 3.22152 8.58606 3.58584L1.58606 10.5858C1.21112 10.9609 1.00049 11.4695 1.00049 11.9998C1.00049 12.5302 1.21112 13.0388 1.58606 13.4138L8.58606 20.4138C8.77056 20.6049 8.99124 20.7572 9.23525 20.862C9.47926 20.9669 9.7417 21.022 10.0073 21.0243C10.2728 21.0266 10.5362 20.976 10.782 20.8755C11.0278 20.7749 11.2511 20.6264 11.4389 20.4386C11.6266 20.2508 11.7751 20.0275 11.8757 19.7817C11.9763 19.536 12.0269 19.2726 12.0246 19.007C12.0223 18.7415 11.9671 18.479 11.8623 18.235C11.7574 17.991 11.6051 17.7703 11.4141 17.5858L7.82806 13.9998H21.0001C21.5305 13.9998 22.0392 13.7891 22.4143 13.4141C22.7893 13.039 23.0001 12.5303 23.0001 11.9998C23.0001 11.4694 22.7893 10.9607 22.4143 10.5856C22.0392 10.2106 21.5305 9.99984 21.0001 9.99984Z" fill="black"/>
</svg>
