<svg width="19" height="17" viewBox="0 0 19 17" fill="none" xmlns="http://www.w3.org/2000/svg">
<path d="M13.6693 0.0422269C12.9095 0.0480346 12.1598 0.21664 11.4706 0.536682C10.7815 0.856724 10.1689 1.32077 9.67425 1.89754C9.17959 1.32077 8.56704 0.856724 7.87789 0.536682C7.18874 0.21664 6.439 0.0480346 5.67918 0.0422269C5.03617 0.0358914 4.39835 0.157869 3.80305 0.401021C3.20775 0.644174 2.66692 1.00362 2.21222 1.45832C1.75752 1.91302 1.39808 2.45384 1.15493 3.04914C0.911775 3.64444 0.789798 4.28226 0.796133 4.92527C0.796133 8.28113 3.81481 11.0154 8.38677 15.1702L9.67425 16.3331L10.9617 15.1612C15.5337 11.0154 18.5524 8.28113 18.5524 4.92527C18.5587 4.28226 18.4367 3.64444 18.1936 3.04914C17.9504 2.45384 17.591 1.91302 17.1363 1.45832C16.6816 1.00362 16.1408 0.644174 15.5455 0.401021C14.9502 0.157869 14.3123 0.0358914 13.6693 0.0422269ZM9.76321 13.8476L9.67425 13.936L9.58529 13.8471C5.35957 10.0209 2.57208 7.49064 2.57208 4.92527C2.5623 4.51455 2.63599 4.10611 2.78867 3.72469C2.94135 3.34327 3.16985 2.99681 3.46033 2.70627C3.75082 2.41574 4.09724 2.18718 4.47863 2.03443C4.86003 1.88169 5.26845 1.80794 5.67918 1.81764C6.35393 1.82097 7.01308 2.02091 7.57598 2.393C8.13889 2.76508 8.58113 3.29317 8.8486 3.91265H10.509C10.7734 3.29286 11.2137 2.76414 11.7754 2.39182C12.337 2.01949 12.9955 1.81988 13.6693 1.81764C14.08 1.80794 14.4884 1.88168 14.8697 2.03439C15.2511 2.1871 15.5975 2.41561 15.888 2.70609C16.1784 2.99657 16.407 3.34297 16.5597 3.72432C16.7124 4.10568 16.7861 4.51406 16.7764 4.92474C16.7764 7.49064 13.9889 10.0209 9.76321 13.8476Z" fill="#414141"/>
</svg>
