<svg width="22" height="20" viewBox="0 0 22 20" fill="none" xmlns="http://www.w3.org/2000/svg">
<path fill-rule="evenodd" clip-rule="evenodd" d="M11.3386 1.88306C12.4445 0.744368 13.9229 0.0768957 15.4792 0.00624653L15.7546 0C17.411 0 18.9995 0.677387 20.1702 1.88273C21.3418 3.08783 22 4.72265 22 6.42732C22 8.132 21.3418 9.76682 20.1704 10.9718L11.679 19.7105C11.3038 20.0965 10.6956 20.0965 10.3205 19.7105L1.8291 10.9718C-0.609699 8.46194 -0.609699 4.39271 1.8291 1.88289C4.2679 -0.626926 8.22197 -0.626926 10.6608 1.88289L10.9995 2.23114L11.3386 1.88306ZM18.8118 3.28074C18.0011 2.44604 16.9013 1.97708 15.7546 1.97708C14.6078 1.97708 13.508 2.44604 12.6972 3.2809L11.679 4.32876C11.3038 4.71481 10.6956 4.71481 10.3205 4.32876L9.30232 3.2809C7.61377 1.54318 4.87609 1.54318 3.18755 3.2809C1.499 5.01862 1.499 7.83603 3.18755 9.57375L10.9995 17.6128L18.8121 9.57358C19.5691 8.7949 20.0165 7.75707 20.0728 6.66264L20.0789 6.42732C20.0789 5.24716 19.6232 4.11537 18.8118 3.28074Z" fill="#767474"/>
</svg>
