<svg width="24" height="24" viewBox="0 0 24 24" fill="none" xmlns="http://www.w3.org/2000/svg">
<path d="M20.9288 1.628C20.8544 1.44247 20.7262 1.28347 20.5606 1.17153C20.395 1.05959 20.1996 0.999847 19.9998 1H3.99976C3.79988 0.999847 3.60454 1.05959 3.43895 1.17153C3.27336 1.28347 3.14511 1.44247 3.07076 1.628L1.07076 6.628C1.02389 6.74643 0.999803 6.87264 0.999756 7V22C0.999756 22.2652 1.10511 22.5196 1.29265 22.7071C1.48019 22.8946 1.73454 23 1.99976 23H21.9998C22.265 23 22.5193 22.8946 22.7069 22.7071C22.8944 22.5196 22.9998 22.2652 22.9998 22V7C22.9997 6.87264 22.9756 6.74643 22.9288 6.628L20.9288 1.628ZM4.67676 3H19.3228L20.5228 6H3.47676L4.67676 3ZM2.99976 21V8H20.9998V21H2.99976Z" fill="white"/>
<path d="M10.0002 17H6.00024C5.73503 17 5.48067 17.1054 5.29314 17.2929C5.1056 17.4804 5.00024 17.7348 5.00024 18C5.00024 18.2652 5.1056 18.5196 5.29314 18.7071C5.48067 18.8947 5.73503 19 6.00024 19H10.0002C10.2655 19 10.5198 18.8947 10.7074 18.7071C10.8949 18.5196 11.0002 18.2652 11.0002 18C11.0002 17.7348 10.8949 17.4804 10.7074 17.2929C10.5198 17.1054 10.2655 17 10.0002 17Z" fill="white"/>
</svg>
