<svg width="23" height="22" viewBox="0 0 23 22" fill="none" xmlns="http://www.w3.org/2000/svg">
<path d="M23 21.2644C22.8507 21.4624 22.7873 21.7301 22.542 21.8489C22.0636 22.0812 21.6833 22.0645 21.2908 21.6634C20.7613 21.1227 20.2318 20.5831 19.7012 20.0435C19.5816 19.9226 19.458 19.806 19.3118 19.6632C18.2824 20.3362 17.161 20.5706 15.964 20.381C14.9295 20.2174 14.0187 19.7653 13.298 18.9955C11.8915 17.4932 11.5132 15.3659 12.467 13.3397C12.4547 13.3095 12.4506 13.2626 12.4292 13.2532C11.9078 13.0032 11.7279 12.6011 11.732 12.0042C11.7555 8.39445 11.7453 4.7837 11.7412 1.17398C11.7412 0.855199 11.7606 0.56038 12.0019 0.313481C12.5222 -0.218861 13.3757 -0.0303012 13.5935 0.68435C13.6568 0.893745 13.6793 1.12502 13.6793 1.34587C13.6844 4.64306 13.6834 7.94129 13.6834 11.2385V11.8239C14.306 11.3447 14.9326 11.0322 15.6359 10.8499C15.6359 10.6468 15.6359 10.4749 15.6359 10.304C15.6359 7.26622 15.6348 4.22948 15.6389 1.19169C15.6389 1.00521 15.644 0.805195 15.7054 0.634345C15.8628 0.195762 16.2778 -0.0448859 16.7112 0.0124112C17.1794 0.0738753 17.528 0.450994 17.574 0.955209C17.5863 1.09272 17.5781 1.23232 17.5781 1.37191C17.5781 4.3399 17.5781 7.30789 17.5781 10.2759V10.803C18.2752 10.9791 18.9264 11.2041 19.5244 11.6885V11.0749C19.5244 7.81211 19.5234 4.5493 19.5275 1.28649C19.5275 1.08335 19.5469 0.870826 19.6072 0.679141C19.7595 0.192637 20.1878 -0.0615542 20.6734 0.0134529C21.1007 0.0790842 21.4431 0.486414 21.4666 0.960418C21.4717 1.06459 21.4687 1.16877 21.4687 1.27295C21.4687 5.95881 21.4615 10.6457 21.4748 15.3316C21.4779 16.3046 21.2928 17.2099 20.8073 18.0495C20.7746 18.1068 20.7541 18.1725 20.7184 18.2558C20.8502 18.3975 20.9749 18.535 21.1048 18.6683C21.4891 19.0621 21.8694 19.4601 22.2629 19.8445C22.542 20.1174 22.7965 20.4081 22.9989 20.7435V21.2644H23ZM16.6918 18.46C18.1945 18.5329 19.5643 17.1244 19.5377 15.5274C19.5142 14.1023 18.2149 12.6584 16.6141 12.7084C15.1881 12.7532 13.8776 14.0429 13.8807 15.6066C13.8838 17.1505 15.2157 18.5256 16.6918 18.46Z" fill="white"/>
<path d="M0 0.74175C0.173778 0.456306 0.325067 0.173988 0.687956 0.0552268C1.30333 -0.146876 1.90951 0.335462 1.94222 0.896973C1.94836 1.00011 1.94427 1.10533 1.94427 1.20846C1.94427 6.82254 1.94324 12.4356 1.94733 18.0496C1.94733 18.3924 1.87067 18.6737 1.64476 18.9476C1.3616 19.2914 0.5612 19.2685 0.308711 18.9383C0.209556 18.808 0.103244 18.683 0 18.5559C0 12.6179 0 6.67981 0 0.74175Z" fill="white"/>
<path d="M5.83488 6.66298C5.83488 8.45065 5.83488 10.2373 5.83488 12.025C5.83488 12.1635 5.84408 12.3041 5.82772 12.4406C5.78683 12.7896 5.44848 13.1594 5.11319 13.2365C4.70941 13.3303 4.30359 13.1667 4.0879 12.8323C3.92128 12.575 3.89368 12.2906 3.89368 11.9906C3.89777 8.9882 3.89572 5.98688 3.89674 2.98451C3.89674 2.34278 3.89163 1.70001 3.89777 1.05829C3.90492 0.342592 4.45692 -0.00535718 4.91897 0.0102693C5.3851 0.024854 5.79399 0.410307 5.83079 0.885352C5.84203 1.02287 5.83488 1.16246 5.83488 1.30206C5.83488 3.08973 5.83488 4.87636 5.83488 6.66403V6.66298Z" fill="white"/>
<path d="M9.72749 6.61619C9.72749 8.48825 9.72136 10.3613 9.73261 12.2334C9.73465 12.6397 9.58745 12.9335 9.2542 13.1366C8.68074 13.4866 7.84047 13.0564 7.85478 12.4084C7.85887 12.2521 7.85069 12.0969 7.85069 11.9407C7.85069 8.3872 7.85069 4.83269 7.85069 1.27923C7.85069 1.17505 7.86398 1.06983 7.85069 0.967742C7.78629 0.493738 8.23607 0.12287 8.57749 0.0270275C8.96185 -0.0802743 9.45661 0.157248 9.64572 0.549994C9.70909 0.682298 9.72238 0.84898 9.72443 1.00108C9.7326 1.69489 9.72852 2.38767 9.72852 3.08148C9.72852 4.26076 9.72852 5.439 9.72852 6.61828L9.72749 6.61619Z" fill="white"/>
<path d="M5.83491 17.3089C5.83491 17.6027 5.83797 17.8964 5.83491 18.1902C5.82775 18.7976 5.50882 19.1549 4.98135 19.1976C4.44877 19.2414 4.00819 18.9642 3.89984 18.2892C3.89473 18.2558 3.89677 18.2204 3.89677 18.1861C3.89677 17.5641 3.89166 16.9422 3.89779 16.3203C3.90291 15.8181 4.24739 15.3389 4.76362 15.2827C5.28802 15.2254 5.78379 15.5806 5.83082 16.1171C5.83388 16.1515 5.83388 16.1859 5.83388 16.2202C5.83388 16.5828 5.83388 16.9464 5.83388 17.3089H5.83491Z" fill="white"/>
<path d="M9.72334 17.2504C9.72334 17.614 9.73458 17.9776 9.72027 18.3401C9.70391 18.7756 9.41769 19.1131 9.03436 19.1839C8.51609 19.2798 8.11027 19.0975 7.92627 18.6735C7.88027 18.5672 7.85778 18.4411 7.85676 18.3245C7.85063 17.615 7.84347 16.9056 7.85676 16.1961C7.86596 15.6523 8.28814 15.2408 8.79618 15.2481C9.31036 15.2554 9.70902 15.6628 9.72538 16.2118C9.7356 16.5576 9.72742 16.9035 9.72742 17.2494H9.72436L9.72334 17.2504Z" fill="white"/>
</svg>
