<svg width="23" height="23" viewBox="0 0 23 23" fill="none" xmlns="http://www.w3.org/2000/svg">
<path d="M16.2986 14.5784H15.2968L14.9413 14.2357C16.3325 12.6144 17.0416 10.5169 16.9197 8.38377C16.7978 6.25061 15.8544 4.24765 14.2875 2.7954C12.7206 1.34316 10.6522 0.554586 8.51643 0.595248C6.38067 0.63591 4.34372 1.50264 2.83323 3.01348C1.32275 4.52431 0.456213 6.56174 0.41556 8.69799C0.374907 10.8342 1.1633 12.9032 2.61521 14.4704C4.06712 16.0376 6.06962 16.9813 8.20228 17.1032C10.335 17.2251 12.4319 16.5159 14.0529 15.1243L14.3955 15.4799V16.4827L20.7389 22.8155L22.6291 20.9249L16.2986 14.5784ZM8.68609 14.5784C7.55688 14.5784 6.45304 14.2435 5.51414 13.616C4.57524 12.9885 3.84345 12.0966 3.41132 11.0531C2.97919 10.0096 2.86613 8.86136 3.08643 7.75359C3.30672 6.64583 3.85049 5.62828 4.64896 4.82963C5.44743 4.03097 6.46474 3.48708 7.57225 3.26673C8.67976 3.04639 9.82772 3.15948 10.871 3.5917C11.9142 4.02393 12.8059 4.75589 13.4333 5.695C14.0606 6.63412 14.3955 7.73823 14.3955 8.86769C14.3965 9.61791 14.2495 10.361 13.9629 11.0543C13.6763 11.7476 13.2558 12.3775 12.7255 12.908C12.1951 13.4385 11.5653 13.8591 10.8722 14.1457C10.179 14.4324 9.43614 14.5794 8.68609 14.5784V14.5784Z" fill="white"/>
</svg>
