<svg width="95" height="95" viewBox="0 0 95 95" fill="none" xmlns="http://www.w3.org/2000/svg">
<path d="M38.1524 47.5515C38.3344 47.3675 38.4583 47.1331 38.5084 46.8781C38.5586 46.623 38.5328 46.3586 38.4342 46.1183C38.3356 45.878 38.1688 45.6727 37.9547 45.5282C37.7406 45.3837 37.489 45.3066 37.2315 45.3066C36.9741 45.3066 36.7224 45.3837 36.5084 45.5282C36.2943 45.6727 36.1274 45.878 36.0289 46.1183C35.9303 46.3586 35.9045 46.623 35.9546 46.8781C36.0048 47.1331 36.1287 47.3675 36.3106 47.5515C36.4315 47.6738 36.575 47.7709 36.733 47.8371C36.8911 47.9034 37.0605 47.9374 37.2315 47.9374C37.4026 47.9374 37.572 47.9034 37.73 47.8371C37.8881 47.7709 38.0316 47.6738 38.1524 47.5515V47.5515Z" fill="#BD4040"/>
<path d="M51.0462 49.4116C51.5924 48.8596 51.9644 48.1564 52.115 47.3909C52.2656 46.6253 52.1882 45.8319 51.8925 45.1108C51.5968 44.3897 51.0961 43.7734 50.4537 43.3398C49.8113 42.9062 49.056 42.6748 48.2835 42.6748C47.5109 42.6748 46.7556 42.9062 46.1133 43.3398C45.4709 43.7734 44.9701 44.3897 44.6744 45.1108C44.3787 45.8319 44.3013 46.6253 44.4519 47.3909C44.6026 48.1564 44.9745 48.8596 45.5207 49.4116C46.254 50.1509 47.2475 50.566 48.2835 50.566C49.3194 50.566 50.313 50.1509 51.0462 49.4116V49.4116ZM47.3607 45.6911C47.5427 45.5071 47.7747 45.3818 48.0273 45.331C48.2798 45.2803 48.5416 45.3063 48.7795 45.4058C49.0174 45.5054 49.2207 45.674 49.3638 45.8903C49.5068 46.1065 49.5832 46.3608 49.5832 46.621C49.5832 46.8811 49.5068 47.1354 49.3638 47.3517C49.2207 47.568 49.0174 47.7366 48.7795 47.8361C48.5416 47.9356 48.2798 47.9617 48.0273 47.9109C47.7747 47.8601 47.5427 47.7348 47.3607 47.5509C47.1168 47.3041 46.9799 46.9697 46.9799 46.621C46.9799 46.2723 47.1168 45.9378 47.3607 45.6911Z" fill="#BD4040"/>
<path d="M45.5216 58.7153C44.9751 59.2674 44.6029 59.9707 44.4521 60.7365C44.3013 61.5022 44.3786 62.296 44.6743 63.0173C44.9701 63.7387 45.4709 64.3552 46.1135 64.789C46.7561 65.2228 47.5115 65.4543 48.2844 65.4543C49.0572 65.4543 49.8127 65.2228 50.4553 64.789C51.0979 64.3552 51.5987 63.7387 51.8944 63.0173C52.1902 62.296 52.2675 61.5022 52.1167 60.7365C51.9659 59.9707 51.5937 59.2674 51.0471 58.7153C50.6844 58.3486 50.2538 58.0577 49.7797 57.8592C49.3057 57.6608 48.7975 57.5586 48.2844 57.5586C47.7712 57.5586 47.2631 57.6608 46.7891 57.8592C46.315 58.0577 45.8843 58.3486 45.5216 58.7153ZM49.2053 62.4377C49.0231 62.6217 48.791 62.747 48.5383 62.7977C48.2855 62.8485 48.0236 62.8224 47.7856 62.7228C47.5476 62.6231 47.3441 62.4544 47.201 62.238C47.0579 62.0216 46.9815 61.7672 46.9815 61.5069C46.9815 61.2466 47.0579 60.9921 47.201 60.7757C47.3441 60.5593 47.5476 60.3906 47.7856 60.291C48.0236 60.1913 48.2855 60.1652 48.5383 60.216C48.791 60.2667 49.0231 60.392 49.2053 60.576C49.3263 60.6983 49.4223 60.8434 49.4878 61.0031C49.5533 61.1628 49.5871 61.334 49.5871 61.5069C49.5871 61.6797 49.5533 61.8509 49.4878 62.0106C49.4223 62.1704 49.3263 62.3155 49.2053 62.4377Z" fill="#BD4040"/>
<path d="M37.7982 56.1832C37.8669 56.5245 38.0667 56.8244 38.354 57.017C38.6412 57.2096 38.9923 57.2793 39.3303 57.2107L57.7468 53.4902C58.0855 53.4219 58.3834 53.2204 58.575 52.9301C58.7666 52.6398 58.8362 52.2846 58.7685 51.9425C58.7008 51.6003 58.5014 51.2994 58.2141 51.1058C57.9267 50.9122 57.5751 50.8419 57.2364 50.9103L38.8199 54.6354C38.4821 54.7048 38.1853 54.9067 37.9946 55.1969C37.8039 55.487 37.735 55.8418 37.8028 56.1832H37.7982Z" fill="#BD4040"/>
<path d="M54.5918 27.7725C54.4201 27.7719 54.2501 27.8056 54.0914 27.8716C53.9327 27.9377 53.7885 28.0348 53.6671 28.1573L39.9985 41.9699C39.7543 42.2166 39.6171 42.5513 39.6171 42.9002C39.6171 43.2492 39.7543 43.5839 39.9985 43.8306C40.2428 44.0774 40.574 44.216 40.9194 44.216C41.2649 44.216 41.5961 44.0774 41.8404 43.8306L54.5918 30.9484L71.1655 47.6931L41.9301 77.2294L25.3572 60.4847L34.4758 51.2726C34.5967 51.1504 34.6927 51.0054 34.7581 50.8457C34.8236 50.6861 34.8572 50.515 34.8572 50.3422C34.8572 50.1694 34.8236 49.9984 34.7581 49.8387C34.6927 49.6791 34.5967 49.534 34.4758 49.4119C34.3549 49.2897 34.2113 49.1928 34.0533 49.1266C33.8953 49.0605 33.7259 49.0265 33.5549 49.0265C33.3838 49.0265 33.2145 49.0605 33.0565 49.1266C32.8985 49.1928 32.7549 49.2897 32.634 49.4119L22.5926 59.5543C22.4716 59.6765 22.3756 59.8215 22.3101 59.9811C22.2446 60.1408 22.2109 60.3119 22.2109 60.4847C22.2109 60.6575 22.2446 60.8286 22.3101 60.9883C22.3756 61.1479 22.4716 61.2929 22.5926 61.4151L41.0091 80.0186C41.13 80.1409 41.2736 80.2378 41.4316 80.304C41.5896 80.3702 41.759 80.4042 41.9301 80.4042C42.1011 80.4042 42.2705 80.3702 42.4285 80.304C42.5865 80.2378 42.7301 80.1409 42.851 80.0186L73.9283 48.6235C74.1724 48.3767 74.3096 48.042 74.3096 47.6931C74.3096 47.3442 74.1724 47.0096 73.9283 46.7628L55.5127 28.1573C55.3913 28.0348 55.2471 27.9377 55.0884 27.8716C54.9297 27.8056 54.7597 27.7719 54.5881 27.7725H54.5918Z" fill="#BD4040"/>
<path d="M79.4531 20.7145L73.8638 26.3612C72.2854 25.1491 70.3617 24.4843 68.3792 24.4657C66.3966 24.4472 64.4611 25.076 62.8608 26.2584L58.2821 21.4945L58.2729 21.4852C57.9103 21.1181 57.4796 20.8268 57.0054 20.6281C56.5313 20.4294 56.023 20.3271 55.5097 20.3271C54.9963 20.3271 54.488 20.4294 54.0139 20.6281C53.5397 20.8268 53.109 21.1181 52.7464 21.4852L16.1455 58.6271C15.7823 58.9935 15.4943 59.4287 15.2977 59.9077C15.1012 60.3867 15 60.9001 15 61.4187C15 61.9372 15.1012 62.4506 15.2977 62.9296C15.4943 63.4086 15.7823 63.8438 16.1455 64.2102L21.3104 69.4282C20.7436 71.0855 20.6498 72.8705 21.0395 74.5792C21.4292 76.2879 22.2868 77.8515 23.5143 79.0912C24.7418 80.3309 26.2897 81.1968 27.9812 81.5899C29.6726 81.9831 31.4395 81.8877 33.0798 81.3147L38.2447 86.5326C38.6074 86.899 39.038 87.1897 39.5119 87.388C39.9857 87.5863 40.4937 87.6884 41.0066 87.6884C41.5195 87.6884 42.0274 87.5863 42.5013 87.388C42.9752 87.1897 43.4057 86.899 43.7684 86.5326L80.5312 49.5513C80.8943 49.185 81.1823 48.75 81.3788 48.2712C81.5754 47.7923 81.6765 47.279 81.6765 46.7607C81.6765 46.2423 81.5754 45.729 81.3788 45.2502C81.1823 44.7713 80.8943 44.3363 80.5312 43.97L80.5183 43.9569L75.8073 39.3331C76.9806 37.7175 77.6047 35.7616 77.5862 33.7579C77.5677 31.7543 76.9076 29.8105 75.7047 28.2173L81.2958 22.5753C81.4168 22.453 81.5127 22.3079 81.5781 22.1482C81.6436 21.9885 81.6772 21.8174 81.6772 21.6446C81.6771 21.4717 81.6434 21.3006 81.5779 21.1409C81.5124 20.9813 81.4164 20.8362 81.2954 20.714C81.1744 20.5919 81.0308 20.495 80.8727 20.4289C80.7146 20.3628 80.5452 20.3288 80.3741 20.3288C80.2031 20.3289 80.0337 20.3629 79.8756 20.4291C79.7176 20.4953 79.574 20.5923 79.4531 20.7145V20.7145ZM73.101 38.484C72.9789 38.6073 72.8822 38.7538 72.8167 38.9151C72.7512 39.0764 72.718 39.2493 72.7192 39.4237C72.7204 39.598 72.756 39.7704 72.8237 39.9308C72.8915 40.0912 72.9901 40.2363 73.1139 40.3578L78.6949 45.8373C78.9372 46.0834 79.0732 46.4164 79.0732 46.7635C79.0732 47.1106 78.9372 47.4435 78.6949 47.6896L41.9321 84.6709C41.6877 84.9176 41.3563 85.0562 41.0107 85.0562C40.6652 85.0562 40.3338 84.9176 40.0894 84.6709L34.3133 78.8365C34.1239 78.6453 33.8808 78.5177 33.6171 78.4711C33.3534 78.4245 33.0818 78.461 32.8394 78.5759C31.6057 79.1517 30.2267 79.3314 28.8887 79.0906C27.5506 78.8499 26.3179 78.2002 25.3568 77.2294C24.3957 76.2585 23.7525 75.0132 23.5141 73.6615C23.2756 72.3097 23.4533 70.9166 24.0232 69.6701C24.137 69.4252 24.1733 69.1509 24.1271 68.8844C24.0809 68.618 23.9546 68.3724 23.7652 68.1811L17.9882 62.3458C17.7437 62.0986 17.6063 61.7635 17.6063 61.414C17.6063 61.0645 17.7437 60.7294 17.9882 60.4822L54.5911 23.3459C54.834 23.1009 55.1629 22.9628 55.5062 22.9618C55.8495 22.9607 56.1792 23.0968 56.4236 23.3403L61.8502 28.9786C61.9704 29.1038 62.114 29.2036 62.2727 29.2722C62.4314 29.3408 62.6021 29.3768 62.7747 29.3782C62.9473 29.3795 63.1185 29.346 63.2782 29.2798C63.4379 29.2136 63.583 29.116 63.705 28.9926C64.7876 27.9174 66.206 27.2552 67.7181 27.1189C69.2301 26.9826 70.7422 27.3807 71.9961 28.2453L70.0858 30.1751C69.2544 29.7754 68.3099 29.6853 67.4191 29.921C66.5284 30.1566 65.7488 30.7028 65.2181 31.4629C64.6873 32.2231 64.4396 33.1483 64.5188 34.075C64.5979 35.0018 64.9987 35.8705 65.6505 36.5276C66.3022 37.1847 67.1629 37.5879 68.0804 37.666C68.9979 37.7441 69.9132 37.492 70.6646 36.9543C71.4159 36.4166 71.955 35.6279 72.1864 34.7275C72.4179 33.8272 72.3269 32.8731 71.9295 32.034L73.8388 30.1051C74.697 31.3713 75.0924 32.8997 74.9575 34.4282C74.8225 35.9567 74.1655 37.3903 73.0991 38.4831L73.101 38.484ZM69.3248 32.8075C69.507 32.9915 69.631 33.2261 69.6812 33.4814C69.7315 33.7367 69.7056 34.0013 69.607 34.2417C69.5084 34.4822 69.3414 34.6877 69.1272 34.8323C68.913 34.9769 68.6611 35.0541 68.4035 35.0541C68.1458 35.0541 67.8939 34.9769 67.6797 34.8323C67.4655 34.6877 67.2985 34.4822 67.1999 34.2417C67.1013 34.0013 67.0754 33.7367 67.1257 33.4814C67.1759 33.2261 67.2999 32.9915 67.4821 32.8075C67.603 32.6852 67.7465 32.5882 67.9045 32.5221C68.0626 32.4559 68.2319 32.4219 68.403 32.4219C68.574 32.4219 68.7434 32.4559 68.9014 32.5221C69.0594 32.5882 69.203 32.6852 69.3239 32.8075H69.3248Z" fill="#BD4040"/>
</svg>
