<svg width="15" height="20" viewBox="0 0 15 20" fill="none" xmlns="http://www.w3.org/2000/svg">
<g clip-path="url(#clip0_1817_630)">
<path d="M12.5295 18.5482C12.5606 18.1021 12.5917 17.6672 12.621 17.2323C12.6827 16.3193 12.7433 15.4061 12.805 14.4931C12.872 13.5002 12.9379 12.5071 13.0067 11.5143C13.0787 10.4746 13.1555 9.43524 13.2268 8.39559C13.2806 7.61356 13.3274 6.83129 13.3812 6.04951C13.4058 5.695 13.6441 5.43 13.977 5.37329C14.3169 5.31556 14.6353 5.48849 14.7693 5.82063C14.8075 5.91524 14.8224 6.02841 14.8161 6.1309C14.7458 7.24277 14.6697 8.35414 14.5941 9.46576C14.5368 10.3111 14.4781 11.1565 14.4198 12.0018C14.3399 13.1597 14.2588 14.3174 14.1797 15.4753C14.1321 16.1726 14.0889 16.8705 14.0417 17.568C14.001 18.1639 13.9605 18.7598 13.9133 19.3551C13.8852 19.7094 13.5958 19.9825 13.2427 19.9927C12.9859 20.0001 12.7289 19.9952 12.4719 19.9952C10.7029 19.9952 8.93399 19.9947 7.16505 19.9947C5.3961 19.9947 3.62741 19.9884 1.85872 19.9996C1.39924 20.0024 1.09039 19.6796 1.06789 19.261C1.01684 18.3094 0.940764 17.359 0.872524 16.4084C0.801251 15.4155 0.725681 14.4229 0.65466 13.4298C0.607397 12.7668 0.566453 12.1035 0.519949 11.4405C0.446906 10.4009 0.370578 9.36149 0.29703 8.32184C0.245471 7.59119 0.1929 6.86028 0.146901 6.12937C0.121627 5.72551 0.415566 5.38854 0.797712 5.36769C1.22914 5.34429 1.54987 5.62557 1.57919 6.05129C1.64768 7.04847 1.71643 8.0454 1.78593 9.04257C1.84406 9.87521 1.90371 10.7076 1.9626 11.5402C2.0551 12.8502 2.14685 14.1602 2.23986 15.4702C2.30785 16.4295 2.3776 17.3885 2.44685 18.3475C2.4514 18.4103 2.45974 18.4729 2.46783 18.5477H12.5295V18.5482Z" fill="black"/>
<path d="M2.91542 2.43128C2.91542 2.04675 2.92806 1.68231 2.91264 1.31915C2.88282 0.606551 3.49193 0.00305643 4.1991 0.00229348C5.58413 0.000767575 6.96941 0.00356506 8.35444 0.00356506C9.14602 0.00356506 9.93761 0.00178484 10.7292 4.6233e-06C11.1778 -0.00101264 11.5466 0.165819 11.8259 0.523643C11.9871 0.730403 12.0738 0.964629 12.0766 1.22734C12.0801 1.57906 12.0834 1.93078 12.0773 2.28225C12.0753 2.39618 12.1034 2.43433 12.2229 2.43331C12.8967 2.42797 13.5705 2.43306 14.2443 2.43077C14.5512 2.42975 14.7791 2.55945 14.9219 2.83183C15.1578 3.28197 14.8317 3.84833 14.3262 3.86969C14.2127 3.87453 14.0988 3.87147 13.9853 3.87147C10.6923 3.87198 7.39907 3.87249 4.10609 3.87249C2.98594 3.87249 1.86604 3.87249 0.745886 3.87071C0.255566 3.86995 -0.0626365 3.4961 0.0109115 3.01163C0.0528667 2.73569 0.319004 2.47527 0.599295 2.44374C0.707722 2.43153 0.817917 2.43153 0.927102 2.43128C1.54202 2.43026 2.15669 2.43102 2.77161 2.43128C2.81281 2.43128 2.85426 2.43128 2.91568 2.43128H2.91542ZM10.6433 1.44198C10.5862 1.44198 10.5369 1.44198 10.4878 1.44198C9.63331 1.44198 8.77879 1.44122 7.92427 1.44147C6.77101 1.44173 5.61774 1.44402 4.46473 1.44097C4.36035 1.44071 4.3376 1.47682 4.33988 1.57296C4.34569 1.8143 4.34771 2.0559 4.34013 2.29725C4.33685 2.40483 4.37223 2.4328 4.4756 2.43204C5.02254 2.42797 5.56922 2.43102 6.11615 2.43102C7.57271 2.43102 9.02901 2.43102 10.4856 2.43026C10.5381 2.43026 10.5904 2.4239 10.6435 2.42034V1.44198H10.6433Z" fill="black"/>
<path d="M8.15647 11.4357C8.15647 13.2152 8.15698 14.9949 8.15597 16.7743C8.15597 17.1479 7.89893 17.4518 7.54661 17.5032C7.11063 17.567 6.7214 17.2359 6.71736 16.7921C6.71357 16.3728 6.7166 15.9531 6.7166 15.5338C6.7166 14.0043 6.7166 12.4746 6.7166 10.9451C6.7166 9.33224 6.71584 7.71936 6.71711 6.10648C6.71761 5.59759 7.16168 5.25833 7.64568 5.39287C7.93431 5.47323 8.15496 5.75069 8.15597 6.06096C8.15976 7.1413 8.15698 8.22189 8.15698 9.30223C8.15698 10.0133 8.15698 10.7244 8.15698 11.4357H8.15647Z" fill="black"/>
<path d="M9.46464 16.7742C9.52404 15.7628 9.58166 14.816 9.63449 13.8689C9.69085 12.8585 9.74089 11.8478 9.79624 10.8374C9.83946 10.0468 9.88698 9.25636 9.93146 8.46568C9.97089 7.76809 10.0083 7.07025 10.048 6.37265C10.0558 6.23329 10.0596 6.0924 10.0823 5.95506C10.146 5.56927 10.491 5.32105 10.8835 5.36988C11.252 5.41566 11.5235 5.7478 11.5025 6.12749C11.4297 7.45528 11.3574 8.78282 11.2839 10.1106C11.2258 11.1592 11.1664 12.2077 11.1065 13.2563C11.0546 14.1609 11.0008 15.0655 10.949 15.9701C10.9338 16.2363 10.9215 16.5029 10.9098 16.7691C10.8911 17.2073 10.5646 17.5331 10.1637 17.5148C9.78538 17.4975 9.42825 17.1654 9.46389 16.774L9.46464 16.7742Z" fill="black"/>
<path d="M3.86437 14.4812C3.80877 13.2333 3.75342 11.9856 3.69781 10.7377C3.62982 9.21456 3.56714 7.6912 3.49056 6.1686C3.46327 5.62538 3.91214 5.26171 4.40726 5.3909C4.69185 5.46516 4.89985 5.71337 4.91805 6.02771C4.94762 6.53456 4.9686 7.04167 4.99185 7.54903C5.03886 8.57724 5.08511 9.60519 5.13086 10.6334C5.17054 11.5258 5.20845 12.4184 5.24864 13.3108C5.29893 14.4321 5.34898 15.5532 5.40281 16.6742C5.41697 16.9694 5.33584 17.2151 5.0836 17.387C4.65015 17.6826 4.05519 17.4285 3.98139 16.9043C3.9455 16.6495 3.94828 16.3893 3.93665 16.1312C3.92427 15.8563 3.91719 15.5809 3.90481 15.306C3.89242 15.031 3.8765 14.7564 3.86209 14.4815H3.86412L3.86437 14.4812Z" fill="black"/>
</g>
<defs>
<clipPath id="clip0_1817_630">
<rect width="15" height="20" fill="white"/>
</clipPath>
</defs>
</svg>
