<svg width="95" height="95" viewBox="0 0 95 95" fill="none" xmlns="http://www.w3.org/2000/svg">
<path d="M29.3702 67.1436C27.7849 67.1437 26.2353 67.6535 24.9172 68.6084C23.5992 69.5634 22.5719 70.9206 21.9654 72.5084C21.3588 74.0963 21.2002 75.8435 21.5096 77.5291C21.819 79.2147 22.5824 80.7629 23.7034 81.9781C24.8244 83.1933 26.2527 84.0209 27.8075 84.3561C29.3623 84.6913 30.9739 84.5192 32.4385 83.8614C33.9031 83.2037 35.1549 82.0899 36.0356 80.6609C36.9164 79.2319 37.3864 77.5519 37.3864 75.8333C37.3844 73.5292 36.5391 71.3201 35.0362 69.6909C33.5333 68.0617 31.4955 67.1456 29.3702 67.1436V67.1436ZM29.3702 81.6267C28.3133 81.6267 27.2801 81.2869 26.4013 80.6503C25.5225 80.0137 24.8375 79.1089 24.433 78.0503C24.0286 76.9917 23.9227 75.8268 24.1289 74.703C24.3351 73.5792 24.8441 72.5469 25.5915 71.7367C26.3388 70.9265 27.291 70.3747 28.3276 70.1512C29.3642 69.9276 30.4387 70.0424 31.4152 70.4808C32.3917 70.9193 33.2263 71.6619 33.8135 72.6146C34.4007 73.5673 34.7141 74.6874 34.7141 75.8333C34.7126 77.3693 34.1492 78.842 33.1473 79.9281C32.1454 81.0143 30.787 81.6251 29.3702 81.6267V81.6267Z" fill="#BD4040"/>
<path d="M74.7899 67.1436C73.2046 67.1436 71.6549 67.6532 70.3367 68.608C69.0186 69.5629 67.9912 70.92 67.3846 72.5079C66.7779 74.0957 66.6192 75.8429 66.9284 77.5285C67.2377 79.2142 68.0011 80.7625 69.1221 81.9778C70.2431 83.1931 71.6713 84.0207 73.2262 84.356C74.781 84.6913 76.3927 84.5192 77.8573 83.8615C79.3219 83.2038 80.5738 82.09 81.4545 80.661C82.3353 79.232 82.8054 77.5519 82.8054 75.8333C82.8033 73.5293 81.9582 71.3203 80.4554 69.6912C78.9527 68.062 76.9151 67.1458 74.7899 67.1436V67.1436ZM74.7899 81.6267C73.733 81.6267 72.6998 81.2869 71.821 80.6503C70.9422 80.0137 70.2572 79.1089 69.8528 78.0503C69.4483 76.9917 69.3425 75.8268 69.5487 74.703C69.7549 73.5792 70.2638 72.5469 71.0112 71.7367C71.7585 70.9265 72.7107 70.3747 73.7474 70.1512C74.784 69.9276 75.8585 70.0424 76.8349 70.4808C77.8114 70.9193 78.646 71.6619 79.2332 72.6146C79.8204 73.5673 80.1338 74.6874 80.1338 75.8333C80.1324 77.3693 79.5689 78.842 78.567 79.9281C77.5652 81.0142 76.2068 81.6251 74.7899 81.6267V81.6267Z" fill="#BD4040"/>
<path d="M90.6077 59.1218L78.5849 38.8451C78.4637 38.6412 78.2974 38.4735 78.1009 38.3574C77.9045 38.2413 77.6844 38.1806 77.4607 38.1807H62.7655C62.4112 38.1807 62.0714 38.3332 61.8209 38.6048C61.5704 38.8764 61.4297 39.2447 61.4297 39.6288V75.8369C61.4298 76.027 61.4644 76.2151 61.5316 76.3907C61.5988 76.5662 61.6972 76.7257 61.8213 76.8601C61.9453 76.9944 62.0925 77.1009 62.2545 77.1735C62.4165 77.2461 62.5902 77.2835 62.7655 77.2834H68.1094V74.3887H64.1013V41.0778H76.7315L88.1485 60.3321V74.3887H81.4688V77.2834H89.4843C89.6597 77.2835 89.8335 77.2461 89.9956 77.1733C90.1577 77.1006 90.305 76.9939 90.4291 76.8595C90.5531 76.725 90.6515 76.5653 90.7186 76.3895C90.7857 76.2138 90.8202 76.0254 90.8201 75.8352V59.9055C90.8203 59.6276 90.7466 59.3554 90.6077 59.1218V59.1218Z" fill="#BD4040"/>
<path d="M69.4497 57.0078V46.8699H80.1375V43.9736H68.1147C67.9391 43.9734 67.7653 44.0107 67.603 44.0834C67.4408 44.1561 67.2933 44.2627 67.1691 44.3972C67.0449 44.5317 66.9464 44.6914 66.8792 44.8672C66.8119 45.043 66.7773 45.2315 66.7773 45.4218V58.456C66.7772 58.6462 66.8117 58.8345 66.8788 59.0103C66.9459 59.186 67.0443 59.3457 67.1684 59.4802C67.2924 59.6147 67.4397 59.7214 67.6018 59.7941C67.7639 59.8668 67.9377 59.9042 68.1131 59.9041H88.153V57.0078H69.4497Z" fill="#BD4040"/>
<path d="M62.763 28.041H11.9969C11.6427 28.0412 11.3031 28.1939 11.0526 28.4654C10.8021 28.7369 10.6613 29.1052 10.6611 29.4892V75.836C10.6611 76.22 10.8019 76.5884 11.0524 76.86C11.3029 77.1316 11.6426 77.2841 11.9969 77.2841H22.684V74.387H13.3327V30.9373H61.4241V74.387H36.0442V77.2833H62.763C62.9384 77.2834 63.1122 77.246 63.2743 77.1733C63.4364 77.1005 63.5837 76.9939 63.7077 76.8594C63.8318 76.7249 63.9302 76.5652 63.9973 76.3894C64.0644 76.2137 64.0988 76.0253 64.0987 75.8351V29.4892C64.0987 29.1051 63.958 28.7368 63.7075 28.4652C63.457 28.1936 63.1172 28.041 62.763 28.041Z" fill="#BD4040"/>
<path d="M20.0145 68.5938H11.999V71.49H20.0145V68.5938Z" fill="#BD4040"/>
<path d="M61.4265 68.5938H38.7158V71.49H61.4265V68.5938Z" fill="#BD4040"/>
<path d="M89.4846 68.5938H84.1406V71.49H89.4846V68.5938Z" fill="#BD4040"/>
<path d="M62.7648 33.834H16.0068V36.7304H62.7648V33.834Z" fill="#BD4040"/>
<path d="M30.7067 74.3916H28.0352V77.2879H30.7067V74.3916Z" fill="#BD4040"/>
<path d="M76.1257 74.3916H73.4541V77.2879H76.1257V74.3916Z" fill="#BD4040"/>
<path d="M34.7102 22.251H16.0068V25.1474H34.7102V22.251Z" fill="#BD4040"/>
<path d="M13.3327 22.251H10.6611V25.1474H13.3327V22.251Z" fill="#BD4040"/>
</svg>
